<svg width="54" height="60" viewBox="0 0 54 60" fill="none" xmlns="http://www.w3.org/2000/svg">
<path d="M13.9511 36.3325C14.7836 36.3325 15.6161 36.3325 16.4738 36.3325C16.4742 36.55 16.4747 36.7675 16.4751 36.9915C16.4769 37.7133 16.4816 38.4351 16.4877 39.1569C16.4913 39.5942 16.4939 40.0314 16.4944 40.4686C16.4948 40.8913 16.4978 41.3139 16.5025 41.7366C16.5039 41.8972 16.5044 42.0577 16.5039 42.2182C16.5014 43.2772 16.5778 44.1643 17.341 44.9794C18.2157 45.4694 19.1506 45.625 20.1367 45.377C20.8315 45.1287 21.1431 44.8487 21.4735 44.1929C21.7323 43.4944 21.6751 42.7339 21.6781 42C21.6798 41.8362 21.6817 41.6724 21.6838 41.5086C21.6888 41.08 21.6919 40.6513 21.6947 40.2227C21.6978 39.7843 21.7027 39.3459 21.7074 38.9076C21.7164 38.0492 21.7234 37.1909 21.7294 36.3325C22.5272 36.3325 23.325 36.3325 24.147 36.3325C24.1565 37.3244 24.1642 38.3163 24.1687 39.3083C24.1709 39.769 24.1739 40.2297 24.1787 40.6904C24.1833 41.1359 24.1858 41.5814 24.1868 42.0269C24.1876 42.196 24.1891 42.3651 24.1914 42.5341C24.211 44.046 23.9796 45.3334 22.909 46.4817C21.6729 47.6406 20.114 47.7958 18.4898 47.7642C17.154 47.7067 15.9401 47.1625 15.0154 46.2036C13.9926 44.9533 13.9197 43.5251 13.9306 41.9898C13.931 41.8262 13.9313 41.6626 13.9315 41.4989C13.9323 41.0711 13.9343 40.6434 13.9367 40.2156C13.9388 39.7779 13.9398 39.3402 13.9408 38.9025C13.9431 38.0458 13.9468 37.1892 13.9511 36.3325Z" fill="#11324D"/>
<path d="M44.0156 36.3321C44.8134 36.3321 45.6112 36.3321 46.4332 36.3321C46.4679 37.9052 46.5026 39.4784 46.5383 41.0992C47.3775 40.2167 48.2156 39.3349 49.0466 38.4452C51.0237 36.3336 51.0237 36.3336 51.3306 36.3203C51.4489 36.3209 51.5673 36.3214 51.6892 36.322C51.8169 36.3223 51.9446 36.3226 52.0762 36.323C52.2107 36.3238 52.3451 36.3247 52.4837 36.3256C52.6186 36.3261 52.7535 36.3265 52.8924 36.327C53.227 36.3282 53.5616 36.33 53.8961 36.3321C53.5707 36.7719 53.2538 37.2001 52.8516 37.5757C52.5878 37.8289 52.3357 38.0839 52.0961 38.3594C51.7308 38.7782 51.3493 39.1808 50.9661 39.5836C50.3934 40.1859 49.8277 40.7932 49.2712 41.4101C49.681 42.0409 50.1213 42.6258 50.6114 43.1978C51.1408 43.8232 51.6529 44.4563 52.1523 45.1053C52.5352 45.5979 52.9379 46.0753 53.3402 46.5525C53.3958 46.619 53.4513 46.6856 53.5085 46.7541C53.558 46.8128 53.6074 46.8715 53.6584 46.932C53.7992 47.1209 53.901 47.3124 54.0012 47.5245C51.1419 47.7568 51.1419 47.7568 50.5757 47.301C50.3593 47.0101 50.1947 46.7311 50.0333 46.4094C49.7557 45.919 49.3793 45.4906 49.0281 45.0502C48.5732 44.4656 48.1249 43.8779 47.6945 43.2755C47.1692 43.5111 46.8168 43.8082 46.5383 44.3118C46.4348 44.8657 46.435 45.4083 46.4398 45.97C46.4384 46.121 46.4367 46.272 46.4346 46.423C46.4298 46.7903 46.4316 47.1568 46.4332 47.5245C45.6354 47.5245 44.8376 47.5245 44.0156 47.5245C44.0156 43.831 44.0156 40.1375 44.0156 36.3321Z" fill="#10314C"/>
<path d="M40.9916 37.2909C41.3962 37.6898 41.7034 38.1419 42.0165 38.6123C41.6605 38.9916 41.2612 39.2764 40.834 39.5709C40.7315 39.6422 40.7315 39.6422 40.627 39.715C40.4598 39.8314 40.2922 39.9473 40.1245 40.0631C40.0602 39.9831 39.996 39.9031 39.9299 39.8206C39.2451 38.9848 38.5526 38.4966 37.4601 38.3783C36.4486 38.3309 35.5417 38.6843 34.765 39.3166C34.0066 40.1356 33.7844 41.1021 33.7956 42.173C33.8558 43.1977 34.2717 44.0342 35.0068 44.759C35.1001 44.8167 35.1933 44.8744 35.2893 44.9339C35.3476 44.9722 35.4059 45.0106 35.4659 45.0501C36.322 45.5246 37.4919 45.4919 38.4304 45.28C39.0241 45.0444 39.7281 44.5755 40.0194 44.0012C40.4982 44.1655 40.8933 44.4147 41.3136 44.6878C41.3814 44.7313 41.4492 44.7749 41.5191 44.8197C41.6851 44.9265 41.8508 45.0338 42.0165 45.1412C41.3073 46.407 40.2952 47.1212 38.8894 47.5701C37.333 47.9617 35.4727 47.8281 34.0563 47.0523C32.638 46.1642 31.6101 44.9401 31.2278 43.2938C31.0256 42.0891 31.0716 40.7554 31.6104 39.6486C31.6587 39.5488 31.7069 39.449 31.7566 39.3462C32.5719 37.7787 33.8984 36.8426 35.5759 36.2923C37.4991 35.7808 39.3809 36.1915 40.9916 37.2909Z" fill="#11324D"/>
<path d="M45.8204 51.055C46.1061 51.252 46.233 51.3769 46.4313 51.6703C46.2786 51.8758 46.1252 52.0808 45.9715 52.2856C45.9281 52.344 45.8847 52.4025 45.8401 52.4627C45.5091 52.9021 45.5091 52.9021 45.2751 53.0175C45.0274 52.908 44.7915 52.7935 44.5525 52.6678C43.7124 52.2306 42.853 51.9676 41.8992 52.2556C41.6991 52.3546 41.6991 52.3546 41.4911 52.603C41.3947 52.9657 41.3947 52.9657 41.4911 53.3284C41.8434 53.6627 42.1603 53.8154 42.6276 53.9437C42.7468 53.9781 42.8661 54.0124 42.9889 54.0478C43.1915 54.1042 43.3942 54.1605 43.597 54.2161C44.8655 54.5671 45.8414 54.9551 46.5364 56.1265C46.7839 56.888 46.6381 57.5881 46.3262 58.3028C45.9042 59.0888 45.2705 59.5024 44.4342 59.7925C42.7988 60.2362 41.2047 59.9422 39.7181 59.1635C39.402 58.9728 39.1357 58.7574 38.8633 58.5101C39.1559 57.984 39.5369 57.5273 39.9144 57.0592C40.2731 57.1254 40.5172 57.2647 40.821 57.4608C41.6969 57.9868 42.5648 58.2149 43.5933 58.0955C44.0307 57.9367 44.1756 57.8562 44.4342 57.4737C44.4955 57.1673 44.4955 57.1673 44.4342 56.8519C43.9647 56.3337 43.2836 56.2437 42.6276 56.0812C40.4264 55.5338 40.4264 55.5338 39.8093 54.7793C39.7529 54.713 39.6966 54.6468 39.6385 54.5785C39.1826 53.9043 39.1864 53.1813 39.2837 52.3957C39.6018 51.5322 40.2012 51.0359 40.9959 50.608C42.4978 49.9479 44.4607 50.203 45.8204 51.055Z" fill="#11314D"/>
<path d="M26.7773 36.3325C27.5751 36.3325 28.3729 36.3325 29.1949 36.3325C29.1949 40.026 29.1949 43.7195 29.1949 47.5249C28.3971 47.5249 27.5993 47.5249 26.7773 47.5249C26.7773 43.8314 26.7773 40.1379 26.7773 36.3325Z" fill="#0F304B"/>
<path d="M11.6427 50.4268C12.3364 50.4268 13.0302 50.4268 13.7449 50.4268C13.7521 51.3142 13.7578 52.2016 13.7613 53.089C13.7629 53.5012 13.7651 53.9133 13.7687 54.3255C13.7722 54.7239 13.774 55.1224 13.7748 55.5209C13.7754 55.6721 13.7765 55.8234 13.7783 55.9747C13.7907 57.1159 13.7408 58.1381 12.9808 59.0538C12.2808 59.7533 11.4588 59.9665 10.4865 59.9869C9.36816 59.962 8.62706 59.642 7.79954 58.8858C7.74967 58.8302 7.69981 58.7747 7.64844 58.7174C7.80949 58.3412 8.03928 58.097 8.33166 57.8106C8.41513 57.7278 8.49859 57.645 8.58459 57.5596C8.80467 57.3702 8.80467 57.3702 9.01489 57.3702C9.19228 57.5407 9.36744 57.7135 9.54045 57.8884C9.92798 58.0794 10.3779 58.0288 10.8018 57.992C11.1109 57.865 11.2625 57.7797 11.4435 57.5047C11.5672 57.1916 11.5672 56.9276 11.5711 56.5916C11.5727 56.4915 11.5727 56.4915 11.5743 56.3893C11.5775 56.1695 11.5793 55.9497 11.5811 55.7299C11.5831 55.5771 11.5851 55.4244 11.5873 55.2716C11.5927 54.8702 11.5968 54.4688 11.6007 54.0674C11.6049 53.6576 11.6103 53.2477 11.6156 52.8379C11.6258 52.0342 11.6345 51.2305 11.6427 50.4268Z" fill="#13334E"/>
<path d="M33.6748 50.4834C34.5317 50.483 35.2851 50.6096 35.9717 51.1455C36.5048 51.8001 36.7136 52.3237 36.6943 53.1699C36.6093 53.8397 36.2392 54.3558 35.7158 54.7793H35.4004V54.9863C35.4781 54.9967 35.5557 55.0078 35.6357 55.0186C36.2438 55.1697 36.6615 55.6447 36.9766 56.1592C37.1961 56.9573 37.1665 57.7715 36.7666 58.5107C36.1871 59.299 35.4537 59.6068 34.5107 59.8096C33.9899 59.8768 33.4749 59.8698 32.9502 59.8672C32.8497 59.8671 32.7491 59.8673 32.6455 59.8672C32.2718 59.8666 31.8981 59.8656 31.5244 59.8643C30.6876 59.8621 29.8504 59.8596 28.9883 59.8574V50.5303C30.3605 50.5174 30.3607 50.518 31.7607 50.5049C32.1907 50.4992 32.1911 50.4989 32.6299 50.4932C32.8599 50.492 33.0903 50.4911 33.3203 50.4902C33.4956 50.4871 33.4958 50.4866 33.6748 50.4834ZM33.4238 55.8887C33.2159 55.8902 33.0077 55.8917 32.7998 55.8955C32.6556 55.8982 32.5114 55.9008 32.3672 55.9023C31.9426 55.9061 31.5183 55.9118 31.0938 55.9189V58.0957C31.4339 58.0997 31.7741 58.103 32.1143 58.1055C32.2564 58.1064 32.3943 58.1075 32.5322 58.1084C32.6723 58.1102 32.8084 58.1125 32.9443 58.1143C33.0794 58.1149 33.2107 58.1155 33.3418 58.1162C33.707 58.1195 33.7073 58.1192 34.0371 58.0957C34.5028 57.9505 34.7274 57.7891 34.9824 57.3701C35.0296 56.991 35.0406 56.7515 34.8584 56.4111C34.5306 56.0991 34.262 55.9316 33.8027 55.8838C33.674 55.8855 33.5488 55.887 33.4238 55.8887ZM33.0957 52.1582C32.9169 52.1597 32.9165 52.1596 32.7412 52.1611C32.5563 52.1651 32.5562 52.165 32.375 52.1689C31.9479 52.1738 31.5208 52.1801 31.0938 52.1885V54.1572C31.4214 54.1671 31.7494 54.1765 32.0771 54.1826C32.2139 54.185 32.3467 54.1871 32.4795 54.1895C33.0209 54.2074 33.639 54.2995 34.1377 54.0566C34.3549 53.8606 34.4491 53.6717 34.5156 53.3916C34.5092 53.2716 34.5092 53.2712 34.5029 53.1533C34.496 52.9128 34.496 52.9127 34.457 52.707C34.1421 52.3965 33.8697 52.206 33.4209 52.1533C33.3104 52.155 33.2029 52.1566 33.0957 52.1582Z" fill="#12334E"/>
<path d="M18.6861 50.9448C18.7554 50.979 18.8248 51.0132 18.8963 51.0485C18.5242 51.4415 18.5242 51.4415 18.2787 51.5504C17.9901 51.7053 17.8219 51.9043 17.6087 52.1496C17.5344 52.2343 17.4602 52.319 17.3837 52.4062C17.3278 52.4711 17.272 52.5361 17.2145 52.603C17.1798 52.5346 17.1451 52.4662 17.1094 52.3957C17.5814 51.8226 18.0681 51.3626 18.6861 50.9448Z" fill="#0B1D39"/>
<path d="M36.1303 54.6757C36.1303 54.8484 36.1303 55.0211 36.1303 55.1938C36.1954 55.2195 36.2604 55.2451 36.3274 55.2716C36.5902 55.424 36.6383 55.5476 36.761 55.8156C36.7064 55.7732 36.6518 55.7307 36.5955 55.6869C36.2099 55.3932 35.866 55.1318 35.3945 54.9866C35.3945 54.9182 35.3945 54.8498 35.3945 54.7793C35.7756 54.5591 35.7756 54.5591 36.1303 54.6757Z" fill="#E5EBEE"/>
<path d="M42.1211 52.0845C42.5373 52.0845 42.9536 52.0845 43.3824 52.0845C43.4171 52.1871 43.4518 52.2897 43.4875 52.3954C43.0366 52.3954 42.5857 52.3954 42.1211 52.3954C42.1211 52.2928 42.1211 52.1902 42.1211 52.0845Z" fill="#D1DCE1"/>
<path d="M33.7148 41.0996C33.9998 41.6614 34.0425 42.0237 34.0302 42.6541C33.9261 42.6199 33.8221 42.5857 33.7148 42.5505C33.7148 42.0717 33.7148 41.5929 33.7148 41.0996Z" fill="#D1DAE1"/>
<path d="M48.5351 39.0269C48.5698 39.0953 48.6045 39.1637 48.6402 39.2341C48.2404 39.6403 47.8187 40.0104 47.3789 40.3741C47.5404 39.9926 47.7764 39.7536 48.0753 39.4673C48.1612 39.3845 48.2471 39.3016 48.3356 39.2163C48.4344 39.1225 48.4344 39.1225 48.5351 39.0269Z" fill="#071B36"/>
<path d="M4.47266 36.1733C6.16944 35.8131 7.95217 36.1238 9.42578 36.9868C10.8295 37.9403 11.6223 39.2106 12.0166 40.8354C12.2822 42.4491 11.9105 44.0976 10.9824 45.439C10.9004 45.5507 10.9001 45.5506 10.8164 45.6646C10.6662 45.8713 10.6663 45.8718 10.6934 46.1772C10.9027 46.4215 10.9033 46.422 11.167 46.6636C11.2547 46.7472 11.3423 46.8313 11.4326 46.9175C11.5349 47.0129 11.5354 47.0126 11.6396 47.1099C11.4737 47.5042 11.2205 47.7614 10.917 48.062C10.8262 48.1532 10.7351 48.2444 10.6416 48.3384C10.3867 48.5533 10.2827 48.6321 9.95801 48.6646C9.7455 48.4603 9.5576 48.2585 9.36621 48.0366C8.95758 47.5764 8.95794 47.5757 8.39551 47.3804C8.12663 47.4386 7.89666 47.5185 7.64551 47.6284C6.15437 48.0665 4.31563 47.763 2.95508 47.104C1.4511 46.2587 0.634269 44.9939 0.182617 43.3794C-0.224865 41.8286 0.075122 40.1767 0.833008 38.7935C1.68175 37.444 2.93762 36.6147 4.47266 36.1733ZM7.74902 38.7153C6.12512 37.8905 4.1552 38.2031 3.12402 39.7524C2.50155 40.7971 2.4078 41.9739 2.69238 43.144C3.01836 44.0946 3.52824 44.7661 4.41113 45.2778C5.23236 45.6581 6.24715 45.7118 7.11816 45.4517V45.2446C7.02437 45.1522 6.93381 45.0619 6.84277 44.9722C6.46471 44.6136 6.16109 44.2131 5.85645 43.7935C6.35427 43.4705 6.84336 43.1359 7.33105 42.7983C7.43318 42.7275 7.43535 42.7245 7.53027 42.6587C7.5946 42.6967 7.6543 42.7367 7.71191 42.7788C7.95666 42.9712 8.1228 43.1783 8.33398 43.4438C8.40923 43.5386 8.48491 43.6331 8.5625 43.7261L8.7998 44.0015H9.01074C9.02585 43.9736 9.0392 43.9446 9.05371 43.9165C9.07406 43.9098 9.09491 43.9037 9.11523 43.897C9.12437 43.8429 9.13259 43.7892 9.1416 43.7358C9.48362 42.999 9.62383 42.203 9.53711 41.3999C9.53622 41.369 9.53717 41.3375 9.53613 41.3062H9.52637C9.51458 41.2154 9.50005 41.1245 9.48242 41.0337C9.28238 40.2967 8.96489 39.7263 8.46484 39.2544C8.47198 39.2474 8.48017 39.2409 8.4873 39.2339C8.40514 39.175 8.32409 39.118 8.24512 39.062C8.09439 38.9404 7.92966 38.8249 7.74902 38.7153Z" fill="#10324D"/>
<path d="M17.2471 52.1943C18.8999 50.131 21.9504 49.6337 24.2236 51.0215C25.2759 51.7781 26.081 52.7629 26.3525 54.0527C26.4462 55.1569 26.4654 56.2672 25.9316 57.2656C25.8871 57.3544 25.8428 57.4437 25.7969 57.5352C25.1766 58.6643 24.2267 59.3269 23.0166 59.749C21.5281 60.178 20.1038 60.0525 18.7256 59.377C17.5473 58.7051 16.7784 57.6945 16.4014 56.4033C16.2072 54.858 16.3119 53.4885 17.2471 52.1943ZM22.7568 52.375C21.8298 51.9553 20.9921 51.9545 20.1582 52.3037C20.1561 52.2996 20.1544 52.2952 20.1523 52.291C20.0403 52.3462 19.988 52.3721 19.9326 52.4062C19.76 52.4916 19.5868 52.5908 19.4131 52.7051C18.762 53.2233 18.4222 54.0221 18.332 54.833C18.3168 55.8332 18.606 56.6498 19.3018 57.3828C20.0399 58.0428 20.7815 58.1807 21.7646 58.1436C22.619 58.0328 23.2434 57.6473 23.7773 56.9854C24.352 56.1016 24.4759 55.2121 24.2803 54.1953C23.9652 53.3966 23.5293 52.7905 22.7568 52.375Z" fill="#10314D"/>
<path d="M27.2843 0.00529688C27.7395 0.117896 28.0264 0.468273 28.3494 0.78619C28.5238 0.942488 28.699 1.09791 28.875 1.25254C28.9638 1.33162 29.0527 1.41071 29.1443 1.49219C29.3684 1.69045 29.5939 1.88666 29.821 2.08161C30.4085 2.58645 30.9851 3.10332 31.5635 3.61829C32.0284 4.03168 32.4957 4.44192 32.9678 4.84732C33.3084 5.14243 33.6441 5.44278 33.9807 5.74237C34.1975 5.93411 34.4162 6.12325 34.6364 6.31114C35.0799 6.6916 35.5096 7.08631 35.9405 7.48035C36.3097 7.81728 36.6837 8.14723 37.0642 8.47165C37.3516 8.72105 37.633 8.97664 37.9146 9.2323C38.3307 9.60996 38.7504 9.98252 39.1776 10.348C39.6936 10.7927 40.1996 11.2488 40.7082 11.7017C41.1732 12.1151 41.6404 12.5253 42.1125 12.9307C42.4526 13.2254 42.788 13.5254 43.1242 13.8246C43.4151 14.082 43.7093 14.3354 44.0041 14.5884C44.3457 14.8845 44.6822 15.186 45.0195 15.4867C45.2431 15.6836 45.4699 15.8755 45.6994 16.0656C46.0968 16.4074 46.0968 16.4074 46.142 16.7672C46.1456 16.8563 46.1491 16.9454 46.1527 17.0372C46.1579 17.1255 46.163 17.2138 46.1683 17.3048C46.0862 17.7079 45.9144 17.841 45.5877 18.0929C45.2602 18.1729 44.9403 18.1754 44.604 18.1763C44.509 18.1778 44.414 18.1793 44.3161 18.1808C44.1154 18.183 43.9146 18.1838 43.7139 18.1833C43.4089 18.1836 43.1047 18.1917 42.7998 18.2002C41.3811 18.2176 41.3811 18.2176 40.8372 17.8917C40.6028 17.6599 40.4178 17.4271 40.227 17.1602C40.0925 17.0356 39.955 16.914 39.8132 16.7975C39.0735 16.1702 38.3544 15.5209 37.6387 14.8674C37.142 14.4143 36.6413 13.9675 36.1277 13.5331C36.0767 13.4899 36.0257 13.4467 35.9731 13.4022C35.1333 12.6907 35.1333 12.6907 34.2895 11.9838C33.5589 11.3738 32.8501 10.7459 32.153 10.0989C31.7732 9.74637 31.3887 9.40209 30.9932 9.06673C30.6669 8.7824 30.3496 8.48886 30.0312 8.19597C29.5848 7.78543 29.1361 7.37989 28.6738 6.98678C28.1722 6.55243 27.684 6.10301 27.1932 5.65695C26.8308 5.81241 26.581 6.02009 26.2932 6.28523C25.9287 6.61569 25.5585 6.9286 25.1698 7.23088C24.6143 7.67287 24.118 8.15938 23.6181 8.66007C23.2449 9.03338 22.8666 9.3913 22.4607 9.73023C22.1995 9.95113 21.9476 10.1813 21.6945 10.4111C21.3057 10.7615 20.9095 11.0963 20.4989 11.4216C20.0707 11.7622 19.6803 12.1199 19.2971 12.5085C19.0419 12.7611 18.7709 12.9918 18.4968 13.2242C18.2026 13.4777 17.9153 13.7384 17.628 13.9994C17.2743 14.3205 16.9195 14.6399 16.5572 14.9516C16.4969 15.0046 16.4367 15.0576 16.3746 15.1122C16.1564 15.2948 16.1564 15.2948 15.9145 15.4626C15.5393 15.7408 15.2588 15.9623 15.1231 16.4159C15.0899 16.7684 15.0865 17.1103 15.0934 17.4643C15.0922 17.5968 15.0911 17.7293 15.0899 17.8659C15.0868 18.2271 15.0895 18.5881 15.0933 18.9494C15.0963 19.3276 15.0939 19.7059 15.092 20.0842C15.0894 20.7995 15.0916 21.5148 15.0955 22.2301C15.0997 23.0449 15.0985 23.8597 15.0969 24.6745C15.0938 26.3496 15.0973 28.0247 15.1053 29.6999C15.7936 29.7035 16.4816 29.7014 17.1698 29.6954C17.4037 29.6941 17.6376 29.694 17.8714 29.6952C18.2087 29.6968 18.5456 29.6937 18.8828 29.6898C18.9865 29.6912 19.0902 29.6927 19.1971 29.6942C19.8817 29.6802 20.2288 29.5328 20.7139 29.0542C20.7993 28.9634 20.7993 28.9634 20.8865 28.8708C20.9641 28.7982 21.0416 28.7256 21.1216 28.6507C21.1825 28.5901 21.2435 28.5295 21.3063 28.467C21.3772 28.3968 21.448 28.3266 21.5211 28.2542C21.6313 28.1442 21.6313 28.1442 21.7438 28.032C21.8223 27.9543 21.9007 27.8765 21.9816 27.7964C22.23 27.5502 22.478 27.3038 22.7259 27.0572C23.053 26.732 23.3804 26.4071 23.7081 26.0824C23.8183 25.9724 23.8183 25.9724 23.9308 25.8602C24.3463 25.4486 24.7722 25.0562 25.2197 24.6784C25.509 24.43 25.7802 24.1651 26.0501 23.8964C26.104 23.8429 26.1579 23.7894 26.2134 23.7343C27.1234 22.8749 27.1234 22.8749 27.4182 21.7148C27.4458 19.9665 27.6295 18.6699 28.7698 17.2639C28.8346 17.1785 28.8994 17.0932 28.9661 17.0052C29.8294 16.006 31.1407 15.3092 32.4488 15.0876C32.8412 15.0573 33.2312 15.0539 33.6247 15.0552C33.7268 15.0535 33.8289 15.0519 33.9341 15.0501C34.4696 15.0498 34.8523 15.0508 35.2868 15.3985C35.256 15.7228 35.2325 15.8734 34.9776 16.0903C34.8867 16.1463 34.7958 16.2023 34.7021 16.2599C34.54 16.3757 34.378 16.4916 34.2169 16.6087C34.0816 16.7055 33.9445 16.7997 33.8061 16.892C33.0779 17.3933 32.4614 17.908 32.2521 18.7892C32.1882 19.2282 32.1746 19.6643 32.1728 20.1073C32.1712 20.1798 32.1696 20.2523 32.168 20.3269C32.161 20.9552 32.1787 21.5097 32.5823 22.0246C33.4573 22.8127 34.1598 22.8656 35.3219 22.8769C36.7418 22.7869 37.4547 21.9919 38.3537 20.9874C38.5063 20.8156 38.6568 20.6433 38.8028 20.466C38.9955 20.2362 39.1303 20.0785 39.4182 19.9743C39.477 19.9691 39.5358 19.9638 39.5964 19.9583C40.0099 20.4312 39.9682 20.8466 39.9643 21.4481C39.9637 21.5502 39.9632 21.6524 39.9627 21.7576C39.9326 23.0087 39.5477 24.0498 38.7555 25.0364C38.694 25.1151 38.6324 25.1937 38.5691 25.2748C37.6274 26.4022 36.2343 27.1495 34.7612 27.3163C34.1459 27.3459 33.5778 27.3322 32.9743 27.2127C32.7819 27.201 32.589 27.1946 32.3962 27.1932C32.2997 27.1918 32.2033 27.1903 32.1039 27.1888C30.7341 27.3033 29.4584 29.116 28.5465 30.0237C28.2509 30.3179 27.955 30.6118 27.6588 30.9054C27.5928 30.9713 27.5269 31.0372 27.459 31.105C25.6985 32.8501 25.6985 32.8501 24.4362 32.8662C24.3248 32.8655 24.2134 32.8648 24.0987 32.8642C23.9797 32.865 23.8606 32.8659 23.738 32.8669C23.3457 32.8692 22.9535 32.8685 22.5613 32.8676C22.2881 32.8681 22.0149 32.8688 21.7418 32.8695C21.1698 32.8706 20.5979 32.8702 20.026 32.8686C19.3658 32.8669 18.7056 32.8685 18.0454 32.8718C17.4088 32.8749 16.7722 32.8751 16.1356 32.8742C15.8654 32.8741 15.5951 32.8748 15.3248 32.8763C14.9471 32.8781 14.5696 32.8766 14.1919 32.8743C14.0804 32.8755 13.9688 32.8767 13.8538 32.8779C13.0084 32.8672 13.0084 32.8672 12.6221 32.5582C12.1018 32.0007 12.0437 31.428 12.0444 30.6839C12.0443 30.5731 12.0441 30.4624 12.044 30.3483C12.0446 30.1685 12.0446 30.1685 12.0451 29.9851C12.0451 29.8577 12.0451 29.7302 12.0451 29.5989C12.0452 29.2508 12.0457 28.9027 12.0464 28.5546C12.0471 28.1903 12.0471 27.826 12.0473 27.4616C12.0476 26.7724 12.0484 26.0831 12.0495 25.3939C12.0507 24.6089 12.0513 23.824 12.0518 23.039C12.0529 21.4249 12.0547 19.8107 12.0571 18.1966C11.9179 18.199 11.9179 18.199 11.7759 18.2015C11.4302 18.2068 11.0845 18.2107 10.7387 18.2137C10.5893 18.2152 10.44 18.2173 10.2906 18.22C10.0753 18.2238 9.86014 18.2256 9.64484 18.2269C9.4508 18.2294 9.4508 18.2294 9.25285 18.2319C8.8714 18.1933 8.6807 18.1136 8.37816 17.8857C8.07952 17.444 8.08965 17.0568 8.16793 16.5384C8.34157 16.2656 8.4574 16.1216 8.69349 15.9166C8.75338 15.8631 8.81327 15.8095 8.87498 15.7543C9.01281 15.6338 9.15196 15.5147 9.29214 15.3969C9.57044 15.1606 9.84144 14.9173 10.1125 14.673C10.4404 14.3782 10.7692 14.0852 11.1045 13.7986C11.5141 13.4477 11.9134 13.0861 12.3128 12.7239C12.8197 12.2644 13.3314 11.8102 13.844 11.3568C14.0192 11.2014 14.1944 11.0459 14.3695 10.8904C14.6297 10.6595 14.8899 10.4287 15.1505 10.1982C15.633 9.77109 16.1127 9.34124 16.59 8.90845C17.0018 8.53521 17.4174 8.16717 17.8399 7.80572C18.2643 7.43996 18.6811 7.06571 19.0996 6.69329C19.2747 6.53781 19.4499 6.38236 19.6251 6.22694C19.7552 6.11152 19.7552 6.11152 19.8879 5.99376C23.8296 2.49614 23.8296 2.49614 24.0916 2.26377C24.2696 2.10574 24.4475 1.94759 24.6253 1.78933C26.6604 -0.0208056 26.6604 -0.0208056 27.2843 0.00529688Z" fill="#13507D"/>
<path d="M26.9893 5.55322C27.3086 5.6948 27.5369 5.85694 27.7892 6.09527C27.8599 6.16147 27.9306 6.22766 28.0035 6.29586C28.0764 6.36499 28.1493 6.43413 28.2244 6.50535C28.7825 7.031 29.3488 7.54243 29.9325 8.04042C30.5595 8.58746 31.174 9.14717 31.785 9.71151C32.3154 10.2009 32.8484 10.6845 33.4011 11.1494C33.5097 11.2413 33.6182 11.3332 33.7267 11.4251C34.2312 11.852 34.7356 12.2789 35.2431 12.7023C35.9473 13.2913 36.6341 13.8944 37.3081 14.5168C37.677 14.8575 38.051 15.1899 38.4338 15.5154C38.8015 15.8352 39.1593 16.1658 39.5187 16.4946C39.9056 16.8478 40.2972 17.1944 40.6974 17.533C40.8641 17.6783 40.8641 17.6783 41.0064 17.84C41.3109 18.1026 41.7202 18.0393 42.1069 18.0422C42.2428 18.045 42.2428 18.045 42.3813 18.0479C42.6705 18.0535 42.9596 18.057 43.2488 18.0605C43.4449 18.0639 43.6409 18.0675 43.837 18.0712C44.3176 18.08 44.7981 18.0869 45.2788 18.0928C45.2788 18.127 45.2788 18.1612 45.2788 18.1965C43.8913 18.1965 42.5038 18.1965 41.0743 18.1965C41.0765 18.6108 41.0787 19.025 41.081 19.4519C41.0879 20.8198 41.0926 22.1877 41.0961 23.5556C41.0983 24.3851 41.1012 25.2145 41.106 26.044C41.1102 26.767 41.1129 27.49 41.1139 28.2131C41.1144 28.5958 41.1157 28.9786 41.1188 29.3614C41.1221 29.7889 41.1222 30.2163 41.122 30.6439C41.1235 30.7705 41.1251 30.8972 41.1266 31.0276C41.1212 32.1205 41.1212 32.1205 40.6539 32.6015C40.3082 32.818 40.0336 32.8344 39.6282 32.8337C39.4429 32.8341 39.4429 32.8341 39.2539 32.8346C39.1188 32.8338 38.9837 32.8331 38.8445 32.8323C38.7005 32.8322 38.5565 32.8323 38.4125 32.8324C38.0218 32.8325 37.6311 32.8312 37.2405 32.8298C36.8321 32.8285 36.4237 32.8284 36.0154 32.8281C35.2422 32.8275 34.469 32.8258 33.6958 32.8237C32.8156 32.8214 31.9353 32.8202 31.055 32.8192C29.2443 32.817 27.4336 32.8134 25.6229 32.8088C25.7205 32.6946 25.8184 32.5806 25.9164 32.4667C25.9709 32.4033 26.0254 32.3398 26.0815 32.2744C26.3598 31.9654 26.6682 31.6915 26.9782 31.4142C27.8365 30.6353 28.6588 29.824 29.4792 29.0067C29.7552 28.7318 30.0316 28.4573 30.3081 28.1829C30.4009 28.0901 30.4009 28.0901 30.4956 27.9955C31.3664 27.1318 31.3664 27.1318 32.1 27.0952C32.2465 27.0956 32.2465 27.0956 32.396 27.096C32.4934 27.0957 32.5909 27.0955 32.6912 27.0952C32.9741 27.1086 33.2293 27.157 33.5063 27.2126C35.1964 27.34 36.7106 26.8562 38.0129 25.7811C38.9084 24.9371 39.7484 23.6662 39.8282 22.4131C39.8308 22.1129 39.8325 21.8129 39.8327 21.5127C39.834 21.408 39.8352 21.3033 39.8366 21.1954C39.8368 21.0949 39.837 20.9944 39.8372 20.8909C39.8376 20.799 39.838 20.7071 39.8385 20.6124C39.829 20.3443 39.829 20.3443 39.6027 20.0619C39.1112 20.2075 38.897 20.4411 38.5775 20.8298C36.8083 22.8797 36.8083 22.8797 35.3718 23.0033C34.367 23.018 33.6457 23.0055 32.8651 22.3285C32.7992 22.2645 32.7333 22.2005 32.6654 22.1345C32.5897 22.0728 32.514 22.011 32.436 21.9473C32.0362 21.4717 32.1123 20.7496 32.1004 20.1526C32.0978 20.0405 32.0978 20.0405 32.0952 19.9262C32.0867 18.9557 32.1832 18.2725 32.8815 17.5347C33.2816 17.1733 33.6952 16.8486 34.1369 16.5383C34.2936 16.419 34.4502 16.2994 34.6066 16.1797C34.9515 15.9165 34.9515 15.9165 35.188 15.9165C35.188 15.7456 35.188 15.5746 35.188 15.3984C34.3616 14.9301 32.9407 15.0733 32.0322 15.266C30.3627 15.7489 29.0961 16.7249 28.2285 18.2066C27.6697 19.2485 27.5746 20.1872 27.5646 21.3541C27.5611 21.5136 27.5611 21.5136 27.5576 21.6763C27.5568 21.7718 27.5561 21.8674 27.5553 21.9658C27.4666 22.5632 27.0268 22.967 26.6214 23.3911C26.566 23.4496 26.5105 23.5082 26.4534 23.5685C25.794 24.2606 25.1301 24.9511 24.3983 25.5695C23.9324 25.9705 23.4962 26.3961 23.0616 26.8296C22.9816 26.9089 22.9017 26.9881 22.8193 27.0697C22.5666 27.32 22.3144 27.5707 22.0622 27.8214C21.7277 28.1539 21.3929 28.4861 21.0579 28.8181C20.9811 28.8946 20.9044 28.9711 20.8253 29.05C20.7544 29.1203 20.6835 29.1905 20.6104 29.2629C20.5169 29.356 20.5169 29.356 20.4215 29.4509C20.1411 29.7066 19.9453 29.7125 19.5746 29.7115C19.4757 29.7115 19.3768 29.7115 19.2749 29.7115C19.1679 29.711 19.061 29.7104 18.9507 29.7099C18.7867 29.7097 18.7867 29.7097 18.6193 29.7094C18.2691 29.7089 17.9189 29.7076 17.5687 29.7062C17.3316 29.7057 17.0946 29.7053 16.8575 29.7048C16.2756 29.7037 15.6936 29.702 15.1117 29.6998C15.0723 27.9566 15.0427 26.2136 15.0245 24.4701C15.0159 23.6603 15.0041 22.8509 14.9848 22.0414C14.968 21.3351 14.9572 20.629 14.9534 19.9225C14.9513 19.5489 14.9462 19.1758 14.9339 18.8024C14.8562 16.3607 14.8562 16.3607 15.4677 15.6106C15.805 15.2695 16.1704 14.9893 16.5703 14.7235C16.951 14.4605 17.2906 14.1513 17.6344 13.8439C17.6903 13.7939 17.7462 13.7439 17.8038 13.6924C17.9581 13.5534 18.1116 13.4137 18.265 13.2739C18.6787 12.8982 19.0962 12.528 19.5215 12.1651C19.7829 11.9383 20.0386 11.7057 20.295 11.4733C20.6838 11.1229 21.08 10.7881 21.4907 10.4628C21.9186 10.1224 22.309 9.76509 22.6916 9.37632C22.8863 9.18404 23.0878 9.00702 23.2973 8.83062C23.6274 8.55143 23.9328 8.2565 24.2367 7.94974C24.6827 7.50467 25.1525 7.1093 25.6479 6.7191C26.1105 6.3475 26.5498 5.95088 26.9893 5.55322Z" fill="#C8CED0"/>
<path d="M37.6016 8.86963C37.9092 9.00731 38.1345 9.15935 38.3784 9.38901C38.4439 9.45008 38.5093 9.51114 38.5767 9.57406C38.6452 9.6387 38.7136 9.70334 38.7841 9.76994C38.9267 9.90294 39.0695 10.0359 39.2123 10.1687C39.3138 10.2633 39.3138 10.2633 39.4174 10.3598C39.7496 10.6676 40.0928 10.9615 40.4396 11.2532C40.5654 11.3596 40.6912 11.4661 40.8169 11.5726C41.1813 11.881 41.5462 12.189 41.9111 12.4968C41.8071 12.5481 41.8071 12.5481 41.7009 12.6004C40.9719 11.976 40.2546 11.3391 39.5379 10.701C39.4496 10.6225 39.3612 10.5439 39.2702 10.463C39.1842 10.3864 39.0981 10.3099 39.0095 10.231C38.7085 9.96624 38.4027 9.70732 38.0947 9.45054C37.9035 9.27166 37.7538 9.08124 37.6016 8.86963Z" fill="#E7EDEF"/>
<path d="M26.4581 31.876C26.5275 31.9102 26.5968 31.9444 26.6683 31.9796C26.6184 32.0437 26.5686 32.1079 26.5172 32.1739C26.3504 32.3845 26.3504 32.3845 26.2479 32.6014C26.8722 32.6356 27.4966 32.6698 28.1399 32.705C28.1399 32.7392 28.1399 32.7734 28.1399 32.8087C27.3074 32.8087 26.4749 32.8087 25.6172 32.8087C26.2479 32.0832 26.2479 32.0832 26.4581 31.876Z" fill="#D0D6D7"/>
<path d="M26.4602 23.4819C26.4949 23.5503 26.5296 23.6187 26.5653 23.6892C26.2057 24.1768 25.7687 24.5469 25.304 24.9328C25.2346 24.8986 25.1652 24.8644 25.0938 24.8292C25.5447 24.3846 25.9956 23.94 26.4602 23.4819Z" fill="#083C6F"/>
<path d="M38.3398 25.4512C38.3398 25.81 38.3028 25.8433 38.0573 26.0859C37.7802 26.3481 37.5774 26.4647 37.1836 26.4875C37.5508 26.1148 37.931 25.7792 38.3398 25.4512Z" fill="#E0E0DA"/>
<path d="M21.8373 27.938C21.872 28.0064 21.9067 28.0748 21.9425 28.1453C21.682 28.503 21.5434 28.6874 21.1016 28.7671C21.2044 28.6483 21.3074 28.5295 21.4103 28.4108C21.4676 28.3447 21.525 28.2786 21.584 28.2104C21.6658 28.1173 21.749 28.0251 21.8373 27.938Z" fill="#083C70"/>
<path d="M8.06888 58.0957C8.29225 58.1346 8.29225 58.1346 8.48933 58.1993C8.09516 58.5102 8.09516 58.5102 7.85866 58.5102C7.85866 58.5786 7.85866 58.647 7.85866 58.7175C7.78929 58.7175 7.71991 58.7175 7.64844 58.7175C7.7695 58.4617 7.86369 58.298 8.06888 58.0957Z" fill="#1A2E49"/>
</svg>
